<?xml version="1.0" encoding="iso-8859-1"?>
<!-- Generator: Adobe Illustrator 19.0.0, SVG Export Plug-In . SVG Version: 6.00 Build 0)  -->
<svg xmlns="http://www.w3.org/2000/svg" xmlns:xlink="http://www.w3.org/1999/xlink" version="1.1" id="Layer_1" x="0px" y="0px" viewBox="0 0 512 512" style="enable-background:new 0 0 512 512;" xml:space="preserve" width="512" height="512">
<g>
	<path style="fill:#09213D;" d="M481,220v120c0,16.569-13.431,30-30,30s-30-13.431-30-30l-50-97.5l50-82.5   C454.137,160,481,186.863,481,220z"/>
	<polygon style="fill:#09213D;" points="271,325 271,512 331,512 331,310  "/>
	<path style="fill:#FF876C;" d="M346,0l-32.5,65l32.5,65c35.899,0,65-29.102,65-65S381.899,0,346,0z"/>
	<path style="fill:#FF9E90;" d="M281,65c0,35.898,29.101,65,65,65V0C310.101,0,281,29.102,281,65z"/>
	<polygon points="361,310 361,512 421,512 421,325  "/>
	<polygon style="fill:#FFD17E;" points="421,160 361,160 311,250 346,325 421,325  "/>
	<polygon style="fill:#FFEAC3;" points="346,230 331,160 271,160 271,325 346,325  "/>
	<polygon points="361,160 346,160 336,220 346,280 361,280  "/>
	<rect x="331" y="160" style="fill:#09213D;" width="15" height="120"/>
	<path style="fill:#233952;" d="M31,220v120c0,16.569,13.431,30,30,30s30-13.431,30-30l50-97.5L91,160C57.863,160,31,186.863,31,220   z"/>
	<polygon style="fill:#09213D;" points="241,325 241,512 181,512 181,310  "/>
	<path style="fill:#FFB4B3;" d="M166,0l32.5,65L166,130c-35.899,0-65-29.102-65-65S130.101,0,166,0z"/>
	<path style="fill:#FF9E90;" d="M231,65c0,35.898-29.101,65-65,65V0C201.899,0,231,29.102,231,65z"/>
	<polygon style="fill:#233952;" points="151,310 151,512 91,512 91,325  "/>
	<polygon style="fill:#BFDCFF;" points="91,160 151,160 201,250 166,325 91,325  "/>
	<polygon style="fill:#89C1FF;" points="166,230 181,160 241,160 241,325 166,325  "/>
	<polygon style="fill:#09213D;" points="151,160 166,160 176,220 166,280 151,280  "/>
	<rect x="166" y="160" width="15" height="120"/>
</g>















</svg>
