<?xml version="1.0" ?><svg viewBox="0 0 64 64" xmlns="http://www.w3.org/2000/svg"><title/><g id="Pin"><path d="M59.4141,56.5859,43.4762,40.6481,54.79,29.334a1.9992,1.9992,0,0,0,0-2.8281l-2.8281-2.8282a7.9968,7.9968,0,0,0-10.7941-.4712l-11.711-8.3648a6.0036,6.0036,0,0,0-.8294-7.4276L25.7988,4.5859a1.9993,1.9993,0,0,0-2.8281,0L4.5859,22.9707a1.9993,1.9993,0,0,0,0,2.8281L7.4141,28.627a5.99,5.99,0,0,0,7.4325.8354l8.361,11.7059a8.0088,8.0088,0,0,0,.47,10.7936L26.5063,54.79a1.9992,1.9992,0,0,0,2.8282,0L40.6481,43.4762,56.5859,59.4141a2,2,0,0,0,2.8282-2.8282Zm-33.36-18.3144-8.25-11.55,4.4587-4.4585,4.4588-4.4585,11.55,8.249ZM10.2427,25.7988l-1.4141-1.414L24.3848,8.8281l1.414,1.4141a2.0031,2.0031,0,0,1,0,2.8291h0l-.7049.7048-.0026.0022-5.6567,5.6568-6.3643,6.3637A2.0489,2.0489,0,0,1,10.2427,25.7988ZM27.92,50.5479l-1.4141-1.4141a4.0055,4.0055,0,0,1,0-5.6572L43.4771,26.5059a4.0036,4.0036,0,0,1,5.6567,0l1.4136,1.414Z"/></g></svg>