<svg id="Layer_1_1_" enable-background="new 0 0 96 96" height="512" viewBox="0 0 96 96" width="512" xmlns="http://www.w3.org/2000/svg"><path d="m39 3h54v54h-54z" fill="#d2d2d2"/><path d="m5 52h54v28h-54z" fill="#f9be3c"/><path d="m5 52h54v3h-54z" fill="#f7aa3b"/><path d="m85 27v17h-6v-13-4z" fill="#f68250"/><path d="m73 31h6v13h-6z" fill="#f9be3c"/><path d="m73 31v13h-6v-11-7h6z" fill="#f68250"/><path d="m67 33v11h-6v-7-4z" fill="#f9be3c"/><path d="m55 37h6v7h-6z" fill="#f68250"/><path d="m86 71v9l-1 1v4h-6v-4h-5c-2.21 0-4-1.79-4-4v-6z" fill="#e6e6e6"/><path d="m65 81h-6v6c0 2.21-1.79 4-4 4h-24c-2.21 0-4-1.79-4-4v-20c0-2.21 1.79-4 4-4h24c2.21 0 4 1.79 4 4v8z" fill="#63b2b9"/><path d="m86 71h-16c0-2.21.9-4.21 2.34-5.66 1.45-1.44 3.45-2.34 5.66-2.34 4.42 0 8 3.58 8 8z" fill="#63b2b9"/><path d="m17 22h6v5h-6z" fill="#e6e6e6"/><path d="m10 48h-7v-14c0-4.42 3.58-8 8-8h6l2 3-2 19z" fill="#e6e6e6"/><path d="m52 31-10.32 10.32c-1.5 1.5-3.92 1.56-5.5.14l-7.18-6.46v13h-6l-2-19 2-3h3.69c2.12 0 4.15.84 5.65 2.34l6.66 6.66 9-8z" fill="#e6e6e6"/><path d="m29 8v3l3 5h-3v2h-9c-1.66 0-3-1.34-3-3v-7z" fill="#e6e6e6"/><path d="m17 23-5-5v-12c0-1.66 1.34-3 3-3h17v2c0 .83-.34 1.58-.88 2.12s-1.29.88-2.12.88h-12v7c0 1.66 1.34 3 3 3h9v5z" fill="#f68250"/><path d="m23 26h-6l2 3-2 19h6l-2-19z" fill="#e6646e"/><path d="m89 85h-20c-2.209 0-4 1.791-4 4v4h28v-4c0-2.209-1.791-4-4-4z" fill="#f9be3c"/><path d="m56 27c-.096 0-.193-.014-.287-.042l-10-3c-.529-.159-.83-.716-.671-1.245s.717-.828 1.245-.671l9.428 2.829 10.578-10.578c.36-.36.935-.393 1.332-.074l9.416 7.532 9.387-6.571c.454-.316 1.076-.207 1.393.246.316.452.207 1.076-.246 1.393l-10 7c-.364.253-.852.239-1.198-.039l-9.301-7.441-10.369 10.368c-.19.19-.446.293-.707.293z" fill="#8c645a"/><path d="m63 24c-.06 0-.12-.005-.179-.016l-11-2c-.125-.022-.244-.069-.351-.136l-8-5c-.469-.293-.611-.91-.318-1.378.293-.469.91-.611 1.378-.318l7.838 4.898 10.404 1.892 12.659-8.764c.058-.04.12-.074.185-.101l12-5c.513-.213 1.096.029 1.308.538.212.51-.028 1.095-.538 1.308l-11.902 4.959-12.913 8.94c-.17.117-.369.178-.571.178z" fill="#8c645a"/><path d="m89 45h-38c-.552 0-1-.448-1-1s.448-1 1-1h38c.552 0 1 .448 1 1s-.448 1-1 1z" fill="#8c645a"/><path d="m88 49h-2c-.552 0-1-.448-1-1s.448-1 1-1h2c.552 0 1 .448 1 1s-.448 1-1 1z" fill="#8c645a"/><path d="m81 49h-2c-.552 0-1-.448-1-1s.448-1 1-1h2c.552 0 1 .448 1 1s-.448 1-1 1z" fill="#8c645a"/><path d="m74 49h-2c-.552 0-1-.448-1-1s.448-1 1-1h2c.552 0 1 .448 1 1s-.448 1-1 1z" fill="#8c645a"/><path d="m67 49h-2c-.552 0-1-.448-1-1s.448-1 1-1h2c.552 0 1 .448 1 1s-.448 1-1 1z" fill="#8c645a"/><path d="m55 9h-11c-.552 0-1-.448-1-1s.448-1 1-1h11c.552 0 1 .448 1 1s-.448 1-1 1z" fill="#8c645a"/><path d="m64 9h-5c-.552 0-1-.448-1-1s.448-1 1-1h5c.552 0 1 .448 1 1s-.448 1-1 1z" fill="#8c645a"/><path d="m48 13h-4c-.552 0-1-.448-1-1s.448-1 1-1h4c.552 0 1 .448 1 1s-.448 1-1 1z" fill="#8c645a"/><path d="m57 13h-5c-.552 0-1-.448-1-1s.448-1 1-1h5c.552 0 1 .448 1 1s-.448 1-1 1z" fill="#8c645a"/><path d="m64 13h-3c-.552 0-1-.448-1-1s.448-1 1-1h3c.552 0 1 .448 1 1s-.448 1-1 1z" fill="#8c645a"/><circle cx="68" cy="8" fill="#8c645a" r="1"/><circle cx="72" cy="8" fill="#8c645a" r="1"/><circle cx="76" cy="8" fill="#8c645a" r="1"/><path d="m10 49c-.552 0-1-.448-1-1v-13c0-.552.448-1 1-1s1 .448 1 1v13c0 .552-.448 1-1 1z" fill="#d2d2d2"/><path d="m3 48h58v4h-58z" fill="#f9be3c"/><path d="m86 72h-21c-.552 0-1-.448-1-1s.448-1 1-1h21c.552 0 1 .448 1 1s-.448 1-1 1z" fill="#50a3ab"/><g fill="#8c645a"><path d="m44 70h-11c-.552 0-1-.448-1-1s.448-1 1-1h11c.552 0 1 .448 1 1s-.448 1-1 1z"/><path d="m53 70h-5c-.552 0-1-.448-1-1s.448-1 1-1h5c.552 0 1 .448 1 1s-.448 1-1 1z"/><path d="m37 74h-4c-.552 0-1-.448-1-1s.448-1 1-1h4c.552 0 1 .448 1 1s-.448 1-1 1z"/><path d="m46 74h-5c-.552 0-1-.448-1-1s.448-1 1-1h5c.552 0 1 .448 1 1s-.448 1-1 1z"/><path d="m53 74h-3c-.552 0-1-.448-1-1s.448-1 1-1h3c.552 0 1 .448 1 1s-.448 1-1 1z"/><path d="m53 86h-13c-.552 0-1-.448-1-1s.448-1 1-1h13c.552 0 1 .448 1 1s-.448 1-1 1z"/><path d="m36 86h-3c-.552 0-1-.448-1-1s.448-1 1-1h3c.552 0 1 .448 1 1s-.448 1-1 1z"/><path d="m44 78h-11c-.552 0-1-.448-1-1s.448-1 1-1h11c.552 0 1 .448 1 1s-.448 1-1 1z"/><path d="m53 78h-5c-.552 0-1-.448-1-1s.448-1 1-1h5c.552 0 1 .448 1 1s-.448 1-1 1z"/><path d="m37 82h-4c-.552 0-1-.448-1-1s.448-1 1-1h4c.552 0 1 .448 1 1s-.448 1-1 1z"/><path d="m46 82h-5c-.552 0-1-.448-1-1s.448-1 1-1h5c.552 0 1 .448 1 1s-.448 1-1 1z"/><path d="m53 82h-3c-.552 0-1-.448-1-1s.448-1 1-1h3c.552 0 1 .448 1 1s-.448 1-1 1z"/><circle cx="9" cy="76" r="1"/><circle cx="9" cy="72" r="1"/><circle cx="9" cy="68" r="1"/><circle cx="13" cy="76" r="1"/><circle cx="13" cy="72" r="1"/><circle cx="17" cy="76" r="1"/></g></svg>